<svg width="31" height="32" viewBox="0 0 31 32" fill="none" xmlns="http://www.w3.org/2000/svg">
<path d="M8.2563 0.564732C8.46483 0.564977 8.67335 0.564085 8.88188 0.563352C9.28916 0.562106 9.69644 0.561922 10.1037 0.562153C10.4353 0.562329 10.7669 0.562154 11.0985 0.561737C11.1459 0.561679 11.1933 0.56162 11.2422 0.56156C11.3386 0.561441 11.4349 0.561321 11.5313 0.561202C12.4329 0.560135 13.3344 0.560344 14.2359 0.560945C15.0576 0.561452 15.8793 0.560348 16.701 0.558477C17.5479 0.556565 18.3948 0.555762 19.2417 0.55613C19.7159 0.556317 20.19 0.556084 20.6642 0.554683C21.0681 0.553502 21.4719 0.553384 21.8757 0.554564C22.0811 0.555137 22.2864 0.55527 22.4918 0.554073C23.7356 0.547316 24.9549 0.630807 26.0964 1.18176C26.1299 1.19763 26.1634 1.21351 26.1979 1.22986C26.54 1.39261 26.8649 1.55928 27.1794 1.77164C27.2604 1.80682 27.3422 1.84059 27.4255 1.86996C27.4255 1.9024 27.4255 1.93484 27.4255 1.96827C27.4592 1.97891 27.4929 1.98956 27.5276 2.00053C27.714 2.08602 27.8525 2.20385 28.007 2.33695C28.0364 2.36147 28.0658 2.38599 28.0961 2.41126C28.1701 2.47421 28.2411 2.54053 28.3116 2.60731C28.3116 2.63975 28.3116 2.67219 28.3116 2.70562C28.3461 2.71475 28.3806 2.72387 28.4162 2.73327C28.609 2.82953 28.7317 2.9714 28.8531 3.14803C28.8531 3.18048 28.8531 3.21292 28.8531 3.24635C28.8856 3.24635 28.918 3.24635 28.9515 3.24635C29.0257 3.33967 29.0257 3.33967 29.1053 3.46141C29.1319 3.50133 29.1584 3.54125 29.1857 3.58238C29.2469 3.68876 29.2469 3.68876 29.2469 3.78707C29.2956 3.80329 29.3443 3.81952 29.3946 3.83623C29.4565 3.91618 29.4565 3.91618 29.5167 4.01865C29.5384 4.05553 29.5601 4.0924 29.5825 4.1304C29.6048 4.16918 29.627 4.20796 29.6499 4.24792C29.6727 4.28632 29.6955 4.32472 29.719 4.36428C29.8868 4.65247 29.8868 4.65247 29.8868 4.81937C29.9193 4.83559 29.9518 4.85181 29.9853 4.86852C30.0366 4.96836 30.0842 5.07011 30.1299 5.17268C30.2359 5.41085 30.2359 5.41085 30.356 5.64197C30.4587 5.86993 30.5045 6.10214 30.5544 6.3463C30.5647 6.39259 30.5749 6.43888 30.5855 6.48657C30.7724 7.38342 30.7875 8.29329 30.7842 9.20565C30.7842 9.31652 30.7841 9.42738 30.7841 9.53825C30.7841 9.76838 30.7837 9.99851 30.783 10.2286C30.7822 10.5226 30.782 10.8165 30.782 11.1104C30.782 11.3384 30.7817 11.5664 30.7814 11.7944C30.7812 11.9028 30.7811 12.0112 30.7811 12.1196C30.781 12.2709 30.7805 12.4222 30.78 12.5735C30.78 12.6175 30.7801 12.6614 30.7801 12.7067C30.7786 12.9968 30.7574 13.2812 30.7236 13.5693C29.093 13.6057 27.4629 13.6239 25.8319 13.6245C25.701 13.6246 25.5701 13.6248 25.4391 13.625C24.4592 13.6263 23.4819 13.6189 22.5029 13.5693C22.5017 13.3647 22.5008 13.16 22.5002 12.9554C22.5 12.8859 22.4997 12.8164 22.4992 12.7469C22.4986 12.6466 22.4984 12.5463 22.4981 12.446C22.4978 12.3556 22.4978 12.3556 22.4974 12.2634C22.5026 12.1042 22.5219 11.9559 22.5522 11.7996C22.5198 11.7879 22.4874 11.7762 22.4541 11.7641C22.2636 11.6833 22.0864 11.5844 21.9061 11.4832C21.8675 11.4617 21.829 11.4401 21.7892 11.4179C21.2467 11.1139 20.7045 10.808 20.177 10.4785C19.8303 10.2628 19.4738 10.0645 19.1172 9.86555C18.9125 9.75109 18.7094 9.63646 18.512 9.50981C18.3736 9.42188 18.2331 9.34638 18.0857 9.27439C17.7899 9.1298 17.5073 8.96461 17.2235 8.798C17.1718 8.76793 17.1202 8.73786 17.067 8.70688C16.9258 8.62438 16.7853 8.54098 16.6451 8.45697C16.6115 8.43721 16.5779 8.41745 16.5433 8.39709C16.4613 8.34656 16.4613 8.34656 16.3497 8.26034C16.3497 8.21168 16.3497 8.16301 16.3497 8.11287C16.2848 8.11287 16.2198 8.11287 16.1528 8.11287C16.1528 13.3038 16.1528 18.4948 16.1528 23.8431C16.2016 23.8431 16.2503 23.8431 16.3005 23.8431C16.3052 23.8128 16.3099 23.7826 16.3148 23.7515C16.3582 23.6208 16.3952 23.6015 16.5155 23.5387C16.5505 23.52 16.5855 23.5012 16.6215 23.4819C16.6598 23.4622 16.698 23.4425 16.7374 23.4222C16.8188 23.3787 16.9002 23.3351 16.9816 23.2914C17.0237 23.269 17.0658 23.2465 17.1092 23.2234C17.3098 23.1148 17.5065 22.9997 17.7034 22.8845C18.0142 22.7036 18.3269 22.5266 18.6418 22.353C19.0857 22.1081 19.5183 21.8514 19.9417 21.5724C20.0678 21.4973 20.193 21.432 20.3247 21.3676C20.5755 21.2441 20.8127 21.1042 21.0508 20.9582C21.4239 20.7316 21.8011 20.5145 22.1843 20.3055C22.354 20.2209 22.354 20.2209 22.5029 20.1071C22.5192 19.5232 22.5354 18.9392 22.5522 18.3375C25.2488 18.3375 27.9453 18.3375 30.7236 18.3375C30.7524 18.7399 30.7802 19.1312 30.78 19.5326C30.7803 19.6012 30.7803 19.6012 30.7805 19.6712C30.781 19.8201 30.7811 19.9689 30.7811 20.1177C30.7813 20.2231 30.7815 20.3285 30.7816 20.434C30.7819 20.6542 30.782 20.8745 30.782 21.0947C30.782 21.3736 30.7827 21.6525 30.7835 21.9315C30.7841 22.1491 30.7842 22.3668 30.7841 22.5845C30.7842 22.6871 30.7844 22.7898 30.7848 22.8925C30.7911 24.749 30.7911 24.749 30.536 25.6219C30.5229 25.669 30.5098 25.716 30.4963 25.7645C30.3998 26.1029 30.2876 26.4267 30.1329 26.7433C30.1186 26.7735 30.1043 26.8037 30.0895 26.8348C29.8143 27.4131 29.5012 27.9411 29.1084 28.4484C29.0848 28.4792 29.0611 28.5099 29.0367 28.5416C28.9779 28.6159 28.9158 28.6876 28.8531 28.7587C28.8206 28.7587 28.7881 28.7587 28.7546 28.7587C28.7424 28.7861 28.7302 28.8135 28.7177 28.8417C28.1091 29.9661 26.4013 30.6823 25.2421 31.0371C25.167 31.0592 25.0918 31.0811 25.0165 31.1029C24.9664 31.1178 24.9664 31.1178 24.9153 31.1331C24.3219 31.2986 23.7141 31.3295 23.1014 31.328C23.031 31.3282 22.9606 31.3285 22.8902 31.3287C22.699 31.3293 22.5079 31.3293 22.3167 31.3292C22.1096 31.3292 21.9025 31.3297 21.6954 31.3302C21.2906 31.331 20.8857 31.3313 20.4809 31.3313C20.1515 31.3314 19.8221 31.3316 19.4927 31.3319C18.5568 31.3327 17.6209 31.3332 16.6851 31.3331C16.6095 31.3331 16.6095 31.3331 16.5325 31.3331C16.4821 31.3331 16.4317 31.3331 16.3797 31.3331C15.5632 31.3331 14.7466 31.334 13.93 31.3354C13.0896 31.3368 12.2492 31.3375 11.4088 31.3374C10.9377 31.3374 10.4667 31.3376 9.99563 31.3387C9.59456 31.3396 9.19349 31.3398 8.79242 31.3391C8.58821 31.3388 8.38402 31.3388 8.17981 31.3397C7.35751 31.3429 6.56602 31.3335 5.7662 31.1183C5.71309 31.1042 5.65998 31.0902 5.60527 31.0758C5.49034 31.044 5.37771 31.0087 5.26471 30.9708C5.22826 30.9593 5.1918 30.9477 5.15424 30.9359C4.75103 30.805 4.37495 30.6262 4.0033 30.4239C3.72992 30.2758 3.72992 30.2758 3.45259 30.1351C3.45259 30.1027 3.45259 30.0702 3.45259 30.0368C3.42594 30.0327 3.39929 30.0286 3.37183 30.0243C3.21545 29.975 3.10476 29.8906 2.97264 29.7941C2.92416 29.7592 2.87568 29.7243 2.82573 29.6883C2.78893 29.6573 2.75212 29.6263 2.7142 29.5944C2.7142 29.562 2.7142 29.5295 2.7142 29.4961C2.68578 29.4829 2.65735 29.4697 2.62806 29.4562C2.51457 29.3963 2.41784 29.3337 2.3204 29.2503C2.3204 29.2179 2.3204 29.1854 2.3204 29.152C2.27166 29.1358 2.22293 29.1196 2.17272 29.1028C2.17272 29.0704 2.17272 29.038 2.17272 29.0045C2.14023 29.0045 2.10774 29.0045 2.07427 29.0045C2.07427 28.9721 2.07427 28.9396 2.07427 28.9062C2.04178 28.9062 2.00929 28.9062 1.97582 28.9062C1.83182 28.7533 1.70876 28.5819 1.58201 28.4146C1.56215 28.3886 1.54229 28.3625 1.52183 28.3357C1.19833 27.9085 0.937362 27.4668 0.695948 26.9891C0.67634 26.9535 0.656733 26.9179 0.636531 26.8812C0.249309 26.1694 0.000716307 25.1811 0.00059323 24.3716C0.000464862 24.3106 0.000336406 24.2496 0.000204148 24.1868C0.000310566 24.1195 0.000421645 24.0522 0.000536896 23.9849C0.000480161 23.9132 0.000401823 23.8414 0.000304047 23.7696C9.85279e-05 23.5725 0.000200415 23.3754 0.00035287 23.1784C0.000464185 22.9657 0.000292234 22.7531 0.000156827 22.5405C-6.21755e-05 22.1241 -1.43584e-05 21.7076 0.000128284 21.2912C0.000239417 20.9527 0.00025399 20.6143 0.000200392 20.2758C0.000192849 20.2276 0.00018563 20.1795 0.000177858 20.1299C0.00016212 20.032 0.000145964 19.9342 0.000129786 19.8364C-1.06188e-05 18.9188 0.000150764 18.0013 0.000415214 17.0837C0.000635111 16.2964 0.000597133 15.509 0.000370146 14.7217C0.000106718 13.8075 2.66336e-06 12.8933 0.000153822 11.9792C0.000169503 11.8817 0.000185125 11.7842 0.000200392 11.6867C0.000207987 11.6388 0.000215852 11.5908 0.000223677 11.5414C0.000266183 11.2033 0.000194534 10.8653 7.87098e-05 10.5273C-5.93453e-05 10.1153 -2.2008e-05 9.70331 0.000240202 9.29133C0.00036958 9.08112 0.000420218 8.87091 0.000257478 8.66071C0.000110739 8.46826 0.000191004 8.27581 0.00045277 8.08336C0.000507731 8.01376 0.000480544 7.94416 0.000361133 7.87457C0.000211136 7.77987 0.00039435 7.68518 0.00059323 7.59049C0.000601222 7.53792 0.000609032 7.48535 0.000617266 7.43118C0.0301369 6.69455 0.262564 5.93031 0.548271 5.25563C0.564012 5.21846 0.579752 5.18129 0.59597 5.14299C0.765697 4.75513 0.978373 4.39155 1.19744 4.02978C1.23062 3.97446 1.26381 3.91915 1.298 3.86215C1.32675 3.82115 1.35549 3.78016 1.38511 3.73791C1.4176 3.73791 1.45009 3.73791 1.48356 3.73791C1.49574 3.71155 1.50793 3.68519 1.52048 3.65804C1.5971 3.51266 1.68215 3.37921 1.77891 3.24635C1.8114 3.24635 1.84389 3.24635 1.87737 3.24635C1.89056 3.21771 1.90376 3.18906 1.91736 3.15955C1.97655 3.04835 2.04169 2.96095 2.12349 2.86538C2.14888 2.83522 2.17426 2.80506 2.20041 2.77398C2.27117 2.70562 2.27117 2.70562 2.36962 2.70562C2.36962 2.67318 2.36962 2.64073 2.36962 2.60731C2.40211 2.60731 2.4346 2.60731 2.46807 2.60731C2.46807 2.57486 2.46807 2.54242 2.46807 2.50899C2.63847 2.36152 2.63847 2.36152 2.76343 2.36152C2.76343 2.32908 2.76343 2.29664 2.76343 2.26321C2.88269 2.15957 3.01722 2.07519 3.148 1.9867C3.18433 1.96136 3.22066 1.93601 3.25809 1.9099C3.31068 1.87397 3.31068 1.87397 3.36433 1.83731C3.39655 1.81528 3.42878 1.79326 3.46198 1.77056C3.55104 1.72248 3.55104 1.72248 3.69872 1.72248C3.69872 1.69004 3.69872 1.6576 3.69872 1.62417C3.89246 1.50967 4.08153 1.40653 4.29039 1.32136C4.36185 1.2911 4.43238 1.25864 4.50229 1.22496C4.89577 1.03643 5.29765 0.904297 5.71697 0.788505C5.76614 0.774822 5.76614 0.774822 5.8163 0.760862C6.61937 0.547402 7.43238 0.562911 8.2563 0.564732ZM13.5958 8.68375C13.3424 8.85609 13.0794 9.00569 12.8116 9.15438C12.7105 9.21099 12.6095 9.26764 12.5084 9.32432C12.4586 9.35224 12.4088 9.38016 12.3574 9.40893C12.1562 9.52226 11.9561 9.63756 11.7564 9.75348C11.7193 9.77499 11.6822 9.79649 11.644 9.81865C11.5655 9.8642 11.487 9.90976 11.4085 9.95532C11.1033 10.132 10.7975 10.3074 10.4919 10.4832C10.2182 10.6408 9.94496 10.799 9.67253 10.9588C9.59364 11.005 9.59364 11.005 9.51316 11.0521C9.41418 11.1102 9.31529 11.1684 9.21648 11.2267C8.44902 11.6767 8.44902 11.6767 8.07981 11.7505C8.07981 14.5406 8.07981 17.3308 8.07981 20.2055C8.16103 20.2217 8.24225 20.2379 8.32594 20.2546C8.44626 20.3097 8.44626 20.3097 8.5713 20.3781C8.6404 20.4158 8.6404 20.4158 8.7109 20.4542C8.75849 20.4806 8.80608 20.507 8.85511 20.5342C8.90194 20.5596 8.94877 20.5851 8.99702 20.6113C9.25428 20.7526 9.4999 20.903 9.74243 21.068C9.93417 21.1931 10.1362 21.2989 10.338 21.4067C10.5989 21.5478 10.857 21.6879 11.1041 21.8522C11.3578 22.0192 11.6251 22.1557 11.8948 22.2946C12.261 22.4832 12.6114 22.6787 12.9532 22.9091C13.2562 23.1104 13.5495 23.2468 13.8884 23.4007C13.8884 18.5017 13.8884 13.6027 13.8884 8.55528C13.7554 8.55528 13.7044 8.6076 13.5958 8.68375Z" fill="#12399B"/>
</svg>
