<svg width="188" height="35" viewBox="0 0 188 35" fill="none" xmlns="http://www.w3.org/2000/svg">
<path d="M8.2563 2.01457C8.46483 2.01482 8.67335 2.01393 8.88188 2.01319C9.28916 2.01195 9.69644 2.01176 10.1037 2.01199C10.4353 2.01217 10.7669 2.01199 11.0985 2.01158C11.1459 2.01152 11.1933 2.01146 11.2422 2.0114C11.3386 2.01128 11.4349 2.01116 11.5313 2.01104C12.4329 2.00998 13.3344 2.01018 14.2359 2.01079C15.0576 2.01129 15.8793 2.01019 16.701 2.00832C17.5479 2.00641 18.3948 2.0056 19.2417 2.00597C19.7159 2.00616 20.19 2.00592 20.6642 2.00452C21.0681 2.00334 21.4719 2.00322 21.8757 2.0044C22.0811 2.00498 22.2864 2.00511 22.4918 2.00391C23.7356 1.99716 24.9549 2.08065 26.0964 2.6316C26.1299 2.64747 26.1634 2.66335 26.1979 2.6797C26.54 2.84245 26.8649 3.00912 27.1794 3.22148C27.2604 3.25667 27.3422 3.29043 27.4255 3.3198C27.4255 3.35224 27.4255 3.38468 27.4255 3.41811C27.4592 3.42875 27.4929 3.4394 27.5276 3.45037C27.714 3.53586 27.8525 3.65369 28.007 3.78679C28.0364 3.81131 28.0658 3.83583 28.0961 3.8611C28.1701 3.92405 28.2411 3.99037 28.3116 4.05715C28.3116 4.08959 28.3116 4.12204 28.3116 4.15546C28.3461 4.16459 28.3806 4.17371 28.4162 4.18311C28.609 4.27937 28.7317 4.42124 28.8531 4.59787C28.8531 4.63032 28.8531 4.66276 28.8531 4.69619C28.8856 4.69619 28.918 4.69619 28.9515 4.69619C29.0257 4.78951 29.0257 4.78951 29.1053 4.91125C29.1319 4.95117 29.1584 4.99109 29.1857 5.03222C29.2469 5.1386 29.2469 5.1386 29.2469 5.23691C29.2956 5.25313 29.3443 5.26936 29.3946 5.28607C29.4565 5.36602 29.4565 5.36602 29.5167 5.46849C29.5384 5.50537 29.5601 5.54225 29.5825 5.58024C29.6048 5.61902 29.627 5.6578 29.6499 5.69776C29.6727 5.73616 29.6955 5.77456 29.719 5.81412C29.8868 6.10231 29.8868 6.10231 29.8868 6.26921C29.9193 6.28543 29.9518 6.30165 29.9853 6.31836C30.0366 6.4182 30.0842 6.51995 30.1299 6.62252C30.2359 6.86069 30.2359 6.86069 30.356 7.09181C30.4587 7.31977 30.5045 7.55198 30.5544 7.79614C30.5647 7.84243 30.5749 7.88872 30.5855 7.93641C30.7724 8.83326 30.7875 9.74313 30.7842 10.6555C30.7842 10.7664 30.7841 10.8772 30.7841 10.9881C30.7841 11.2182 30.7837 11.4484 30.783 11.6785C30.7822 11.9724 30.782 12.2663 30.782 12.5602C30.782 12.7882 30.7817 13.0163 30.7814 13.2443C30.7812 13.3527 30.7811 13.4611 30.7811 13.5695C30.781 13.7208 30.7805 13.8721 30.78 14.0233C30.78 14.0673 30.7801 14.1113 30.7801 14.1565C30.7786 14.4466 30.7574 14.7311 30.7236 15.0191C29.093 15.0555 27.4629 15.0737 25.8319 15.0743C25.701 15.0744 25.5701 15.0746 25.4391 15.0748C24.4592 15.0761 23.4819 15.0688 22.5029 15.0191C22.5017 14.8145 22.5008 14.6099 22.5002 14.4053C22.5 14.3358 22.4997 14.2662 22.4992 14.1967C22.4986 14.0964 22.4984 13.9961 22.4981 13.8958C22.4978 13.8055 22.4978 13.8055 22.4974 13.7133C22.5026 13.554 22.5219 13.4057 22.5522 13.2495C22.5198 13.2378 22.4874 13.226 22.4541 13.214C22.2636 13.1332 22.0864 13.0342 21.9061 12.933C21.8675 12.9115 21.829 12.89 21.7892 12.8678C21.2467 12.5638 20.7045 12.2579 20.177 11.9284C19.8303 11.7126 19.4738 11.5143 19.1172 11.3154C18.9125 11.2009 18.7094 11.0863 18.512 10.9597C18.3736 10.8717 18.2331 10.7962 18.0857 10.7242C17.7899 10.5796 17.5073 10.4145 17.2235 10.2478C17.1718 10.2178 17.1202 10.1877 17.067 10.1567C16.9258 10.0742 16.7853 9.99082 16.6451 9.90681C16.6115 9.88705 16.5779 9.86729 16.5433 9.84693C16.4613 9.7964 16.4613 9.7964 16.3497 9.71018C16.3497 9.66152 16.3497 9.61285 16.3497 9.56271C16.2848 9.56271 16.2198 9.56271 16.1528 9.56271C16.1528 14.7537 16.1528 19.9446 16.1528 25.2929C16.2016 25.2929 16.2503 25.2929 16.3005 25.2929C16.3052 25.2627 16.3099 25.2325 16.3148 25.2013C16.3582 25.0707 16.3952 25.0513 16.5155 24.9886C16.5505 24.9698 16.5855 24.951 16.6215 24.9317C16.6598 24.912 16.698 24.8923 16.7374 24.872C16.8188 24.8285 16.9002 24.7849 16.9816 24.7412C17.0237 24.7188 17.0658 24.6964 17.1092 24.6732C17.3098 24.5646 17.5065 24.4495 17.7034 24.3343C18.0142 24.1534 18.3269 23.9764 18.6418 23.8028C19.0857 23.5579 19.5183 23.3013 19.9417 23.0223C20.0678 22.9471 20.193 22.8818 20.3247 22.8174C20.5755 22.6939 20.8127 22.5541 21.0508 22.408C21.4239 22.1814 21.8011 21.9644 22.1843 21.7553C22.354 21.6708 22.354 21.6708 22.5029 21.557C22.5192 20.973 22.5354 20.389 22.5522 19.7873C25.2488 19.7873 27.9453 19.7873 30.7236 19.7873C30.7524 20.1897 30.7802 20.581 30.78 20.9825C30.7803 21.0511 30.7803 21.0511 30.7805 21.1211C30.781 21.2699 30.7811 21.4187 30.7811 21.5675C30.7813 21.673 30.7815 21.7784 30.7816 21.8838C30.7819 22.104 30.782 22.3243 30.782 22.5445C30.782 22.8235 30.7827 23.1024 30.7835 23.3813C30.7841 23.599 30.7842 23.8167 30.7841 24.0343C30.7842 24.137 30.7844 24.2396 30.7848 24.3423C30.7911 26.1989 30.7911 26.1989 30.536 27.0718C30.5229 27.1188 30.5098 27.1659 30.4963 27.2144C30.3998 27.5528 30.2876 27.8765 30.1329 28.1932C30.1186 28.2233 30.1043 28.2535 30.0895 28.2846C29.8143 28.863 29.5012 29.391 29.1084 29.8983C29.0848 29.929 29.0611 29.9598 29.0367 29.9914C28.9779 30.0658 28.9158 30.1375 28.8531 30.2086C28.8206 30.2086 28.7881 30.2086 28.7546 30.2086C28.7424 30.236 28.7302 30.2633 28.7177 30.2915C28.1091 31.4159 26.4013 32.1321 25.2421 32.4869C25.167 32.509 25.0918 32.531 25.0165 32.5528C24.9664 32.5677 24.9664 32.5677 24.9153 32.5829C24.3219 32.7484 23.7141 32.7794 23.1014 32.7779C23.031 32.7781 22.9606 32.7783 22.8902 32.7786C22.699 32.7792 22.5079 32.7791 22.3167 32.779C22.1096 32.779 21.9025 32.7796 21.6954 32.78C21.2906 32.7808 20.8857 32.7811 20.4809 32.7812C20.1515 32.7812 19.8221 32.7814 19.4927 32.7817C18.5568 32.7826 17.6209 32.783 16.6851 32.783C16.6095 32.783 16.6095 32.783 16.5325 32.783C16.4821 32.783 16.4317 32.7829 16.3797 32.7829C15.5632 32.7829 14.7466 32.7838 13.93 32.7852C13.0896 32.7866 12.2492 32.7873 11.4088 32.7872C10.9377 32.7872 10.4667 32.7875 9.99563 32.7885C9.59456 32.7894 9.19349 32.7896 8.79242 32.789C8.58821 32.7887 8.38402 32.7886 8.17981 32.7895C7.35751 32.7928 6.56602 32.7834 5.7662 32.5681C5.71309 32.5541 5.65998 32.54 5.60527 32.5256C5.49034 32.4939 5.37771 32.4586 5.26471 32.4206C5.22826 32.4091 5.1918 32.3976 5.15424 32.3857C4.75103 32.2549 4.37495 32.0761 4.0033 31.8738C3.72992 31.7256 3.72992 31.7256 3.45259 31.585C3.45259 31.5525 3.45259 31.5201 3.45259 31.4867C3.42594 31.4825 3.39929 31.4784 3.37183 31.4742C3.21545 31.4248 3.10476 31.3405 2.97264 31.244C2.92416 31.209 2.87568 31.1741 2.82573 31.1381C2.78893 31.1072 2.75212 31.0762 2.7142 31.0443C2.7142 31.0118 2.7142 30.9794 2.7142 30.9459C2.68578 30.9328 2.65735 30.9196 2.62806 30.906C2.51457 30.8462 2.41784 30.7836 2.3204 30.7002C2.3204 30.6677 2.3204 30.6353 2.3204 30.6018C2.27166 30.5856 2.22293 30.5694 2.17272 30.5527C2.17272 30.5202 2.17272 30.4878 2.17272 30.4544C2.14023 30.4544 2.10774 30.4544 2.07427 30.4544C2.07427 30.4219 2.07427 30.3895 2.07427 30.3561C2.04178 30.3561 2.00929 30.3561 1.97582 30.3561C1.83182 30.2031 1.70876 30.0318 1.58201 29.8645C1.56215 29.8384 1.54229 29.8124 1.52183 29.7855C1.19833 29.3583 0.937362 28.9166 0.695948 28.4389C0.67634 28.4033 0.656733 28.3677 0.636531 28.331C0.249309 27.6193 0.000716307 26.631 0.00059323 25.8215C0.000464862 25.7605 0.000336406 25.6995 0.000204148 25.6366C0.000310566 25.5694 0.000421645 25.5021 0.000536896 25.4348C0.000480161 25.363 0.000401823 25.2912 0.000304047 25.2194C9.85279e-05 25.0224 0.000200415 24.8253 0.00035287 24.6282C0.000464185 24.4156 0.000292234 24.203 0.000156827 23.9904C-6.21755e-05 23.5739 -1.43584e-05 23.1575 0.000128284 22.741C0.000239417 22.4026 0.00025399 22.0641 0.000200392 21.7256C0.000192849 21.6775 0.00018563 21.6293 0.000177858 21.5797C0.00016212 21.4819 0.000145964 21.3841 0.000129786 21.2862C-1.06188e-05 20.3687 0.000150764 19.4511 0.000415214 18.5336C0.000635111 17.7462 0.000597133 16.9589 0.000370146 16.1715C0.000106718 15.2574 2.66336e-06 14.3432 0.000153822 13.429C0.000169503 13.3315 0.000185125 13.234 0.000200392 13.1366C0.000207987 13.0886 0.000215852 13.0406 0.000223677 12.9912C0.000266183 12.6532 0.000194534 12.3151 7.87098e-05 11.9771C-5.93453e-05 11.5651 -2.2008e-05 11.1531 0.000240202 10.7412C0.00036958 10.531 0.000420218 10.3208 0.000257478 10.1105C0.000110739 9.9181 0.000191004 9.72565 0.00045277 9.5332C0.000507731 9.4636 0.000480544 9.394 0.000361133 9.32441C0.000211136 9.22971 0.00039435 9.13502 0.00059323 9.04033C0.000601222 8.98776 0.000609032 8.93519 0.000617266 8.88102C0.0301369 8.14439 0.262564 7.38015 0.548271 6.70547C0.564012 6.6683 0.579752 6.63113 0.59597 6.59283C0.765697 6.20497 0.978373 5.8414 1.19744 5.47962C1.23062 5.42431 1.26381 5.36899 1.298 5.31199C1.32675 5.27099 1.35549 5.23 1.38511 5.18776C1.4176 5.18776 1.45009 5.18776 1.48356 5.18776C1.49574 5.1614 1.50793 5.13503 1.52048 5.10788C1.5971 4.9625 1.68215 4.82905 1.77891 4.69619C1.8114 4.69619 1.84389 4.69619 1.87737 4.69619C1.89056 4.66755 1.90376 4.6389 1.91736 4.60939C1.97655 4.49819 2.04169 4.41079 2.12349 4.31522C2.14888 4.28506 2.17426 4.2549 2.20041 4.22382C2.27117 4.15546 2.27117 4.15546 2.36962 4.15546C2.36962 4.12302 2.36962 4.09057 2.36962 4.05715C2.40211 4.05715 2.4346 4.05715 2.46807 4.05715C2.46807 4.0247 2.46807 3.99226 2.46807 3.95883C2.63847 3.81136 2.63847 3.81136 2.76343 3.81136C2.76343 3.77892 2.76343 3.74648 2.76343 3.71305C2.88269 3.60941 3.01722 3.52503 3.148 3.43654C3.18433 3.4112 3.22066 3.38585 3.25809 3.35974C3.31068 3.32381 3.31068 3.32381 3.36433 3.28715C3.39655 3.26512 3.42878 3.2431 3.46198 3.2204C3.55104 3.17233 3.55104 3.17233 3.69872 3.17233C3.69872 3.13988 3.69872 3.10744 3.69872 3.07401C3.89246 2.95951 4.08153 2.85637 4.29039 2.7712C4.36185 2.74094 4.43238 2.70848 4.50229 2.6748C4.89577 2.48627 5.29765 2.35414 5.71697 2.23835C5.76614 2.22466 5.76614 2.22466 5.8163 2.2107C6.61937 1.99724 7.43238 2.01275 8.2563 2.01457ZM13.5958 10.1336C13.3424 10.3059 13.0794 10.4555 12.8116 10.6042C12.7105 10.6608 12.6095 10.7175 12.5084 10.7742C12.4586 10.8021 12.4088 10.83 12.3574 10.8588C12.1562 10.9721 11.9561 11.0874 11.7564 11.2033C11.7193 11.2248 11.6822 11.2463 11.644 11.2685C11.5655 11.314 11.487 11.3596 11.4085 11.4052C11.1033 11.5818 10.7975 11.7573 10.4919 11.933C10.2182 12.0906 9.94496 12.2489 9.67253 12.4086C9.59364 12.4548 9.59364 12.4548 9.51316 12.502C9.41418 12.56 9.31529 12.6182 9.21648 12.6766C8.44902 13.1266 8.44902 13.1266 8.07981 13.2003C8.07981 15.9905 8.07981 18.7806 8.07981 21.6553C8.16103 21.6715 8.24225 21.6877 8.32594 21.7045C8.44626 21.7595 8.44626 21.7595 8.5713 21.8279C8.6404 21.8656 8.6404 21.8656 8.7109 21.9041C8.75849 21.9304 8.80608 21.9568 8.85511 21.984C8.90194 22.0095 8.94877 22.0349 8.99702 22.0611C9.25428 22.2024 9.4999 22.3528 9.74243 22.5178C9.93417 22.6429 10.1362 22.7487 10.338 22.8566C10.5989 22.9976 10.857 23.1377 11.1041 23.302C11.3578 23.4691 11.6251 23.6056 11.8948 23.7445C12.261 23.9331 12.6114 24.1286 12.9532 24.3589C13.2562 24.5603 13.5495 24.6967 13.8884 24.8505C13.8884 19.9515 13.8884 15.0525 13.8884 10.0051C13.7554 10.0051 13.7044 10.0574 13.5958 10.1336Z" fill="white"/>
<path d="M48.9746 26.8784C46.6318 26.8784 44.7756 26.2297 43.406 24.9321C42.0364 23.6166 41.3516 21.7424 41.3516 19.3095V14.7681C41.3516 12.3353 42.0364 10.47 43.406 9.17252C44.7756 7.85696 46.6318 7.19918 48.9746 7.19918C51.2994 7.19918 53.0925 7.83894 54.354 9.11845C55.6335 10.3799 56.2732 12.119 56.2732 14.3356V14.4978H52.7591V14.2275C52.7591 13.1102 52.4437 12.1911 51.813 11.4702C51.2002 10.7494 50.2541 10.389 48.9746 10.389C47.7131 10.389 46.7219 10.7764 46.0011 11.5513C45.2802 12.3262 44.9198 13.3805 44.9198 14.7141V19.3636C44.9198 20.6791 45.2802 21.7334 46.0011 22.5263C46.7219 23.3012 47.7131 23.6887 48.9746 23.6887C50.2541 23.6887 51.2002 23.3283 51.813 22.6074C52.4437 21.8685 52.7591 20.9494 52.7591 19.8501V19.3636H56.2732V19.742C56.2732 21.9586 55.6335 23.7067 54.354 24.9862C53.0925 26.2477 51.2994 26.8784 48.9746 26.8784ZM65.6683 26.8784C64.3347 26.8784 63.1363 26.6081 62.0731 26.0675C61.0098 25.5268 60.1718 24.7429 59.5591 23.7157C58.9464 22.6885 58.64 21.454 58.64 20.0123V19.5798C58.64 18.1381 58.9464 16.9037 59.5591 15.8764C60.1718 14.8492 61.0098 14.0653 62.0731 13.5247C63.1363 12.984 64.3347 12.7137 65.6683 12.7137C67.0019 12.7137 68.2003 12.984 69.2636 13.5247C70.3268 14.0653 71.1648 14.8492 71.7775 15.8764C72.3903 16.9037 72.6966 18.1381 72.6966 19.5798V20.0123C72.6966 21.454 72.3903 22.6885 71.7775 23.7157C71.1648 24.7429 70.3268 25.5268 69.2636 26.0675C68.2003 26.6081 67.0019 26.8784 65.6683 26.8784ZM65.6683 23.8509C66.7136 23.8509 67.5786 23.5175 68.2634 22.8507C68.9482 22.1659 69.2906 21.1927 69.2906 19.9312V19.6609C69.2906 18.3994 68.9482 17.4353 68.2634 16.7685C67.5966 16.0837 66.7316 15.7413 65.6683 15.7413C64.6231 15.7413 63.7581 16.0837 63.0733 16.7685C62.3884 17.4353 62.046 18.3994 62.046 19.6609V19.9312C62.046 21.1927 62.3884 22.1659 63.0733 22.8507C63.7581 23.5175 64.6231 23.8509 65.6683 23.8509ZM75.8406 26.5V13.0921H79.1925V14.8492H79.6791C79.8954 14.3807 80.3008 13.9392 80.8955 13.5247C81.4902 13.0921 82.3913 12.8759 83.5987 12.8759C84.644 12.8759 85.5541 13.1192 86.329 13.6058C87.1219 14.0743 87.7346 14.7321 88.1671 15.5791C88.5997 16.4081 88.8159 17.3812 88.8159 18.4985V26.5H85.4099V18.7689C85.4099 17.7597 85.1576 17.0028 84.653 16.4982C84.1664 15.9936 83.4636 15.7413 82.5445 15.7413C81.4993 15.7413 80.6883 16.0927 80.1116 16.7955C79.5349 17.4803 79.2466 18.4445 79.2466 19.6879V26.5H75.8406ZM97.2645 26.5C96.3814 26.5 95.6606 26.2297 95.1019 25.689C94.5613 25.1304 94.2909 24.3915 94.2909 23.4724V15.9035H90.939V13.0921H94.2909V8.92923H97.697V13.0921H101.373V15.9035H97.697V22.8777C97.697 23.4184 97.9493 23.6887 98.4539 23.6887H101.049V26.5H97.2645ZM104.456 26.5V13.0921H107.808V14.6059H108.295C108.493 14.0653 108.818 13.6688 109.268 13.4165C109.737 13.1642 110.277 13.0381 110.89 13.0381H112.512V16.0657H110.836C109.971 16.0657 109.259 16.2999 108.7 16.7685C108.142 17.219 107.862 17.9219 107.862 18.877V26.5H104.456ZM119.02 26.8784C118.065 26.8784 117.209 26.7163 116.452 26.3919C115.695 26.0495 115.092 25.5629 114.641 24.9321C114.209 24.2834 113.992 23.4995 113.992 22.5804C113.992 21.6613 114.209 20.8954 114.641 20.2827C115.092 19.6519 115.704 19.1834 116.479 18.877C117.272 18.5526 118.173 18.3904 119.183 18.3904H122.859V17.6335C122.859 17.0028 122.661 16.4892 122.264 16.0927C121.868 15.6782 121.237 15.471 120.372 15.471C119.525 15.471 118.894 15.6692 118.48 16.0657C118.065 16.4441 117.795 16.9397 117.669 17.5524L114.533 16.4982C114.749 15.8134 115.092 15.1916 115.56 14.633C116.047 14.0563 116.687 13.5967 117.48 13.2543C118.29 12.8939 119.273 12.7137 120.426 12.7137C122.192 12.7137 123.589 13.1552 124.616 14.0383C125.643 14.9213 126.157 16.2008 126.157 17.8768V22.8777C126.157 23.4184 126.409 23.6887 126.914 23.6887H127.995V26.5H125.724C125.057 26.5 124.508 26.3378 124.075 26.0134C123.643 25.689 123.427 25.2565 123.427 24.7159V24.6889H122.913C122.841 24.9051 122.679 25.1935 122.426 25.5539C122.174 25.8963 121.778 26.2026 121.237 26.473C120.696 26.7433 119.957 26.8784 119.02 26.8784ZM119.615 24.1212C120.57 24.1212 121.345 23.8599 121.94 23.3373C122.552 22.7966 122.859 22.0848 122.859 21.2017V20.9314H119.426C118.795 20.9314 118.299 21.0666 117.939 21.3369C117.579 21.6072 117.398 21.9857 117.398 22.4722C117.398 22.9588 117.588 23.3553 117.966 23.6616C118.345 23.968 118.894 24.1212 119.615 24.1212ZM130.485 26.5V13.0921H133.891V26.5H130.485ZM132.188 11.5243C131.576 11.5243 131.053 11.3261 130.62 10.9296C130.206 10.5331 129.999 10.0105 129.999 9.36174C129.999 8.71297 130.206 8.19035 130.62 7.79389C131.053 7.39742 131.576 7.19918 132.188 7.19918C132.819 7.19918 133.342 7.39742 133.756 7.79389C134.171 8.19035 134.378 8.71297 134.378 9.36174C134.378 10.0105 134.171 10.5331 133.756 10.9296C133.342 11.3261 132.819 11.5243 132.188 11.5243ZM137.666 26.5V7.57763H141.072V26.5H137.666ZM150.415 26.8784C148.666 26.8784 147.234 26.5 146.116 25.7431C144.999 24.9862 144.323 23.9049 144.089 22.4993L147.225 21.6883C147.351 22.3191 147.558 22.8146 147.847 23.1751C148.153 23.5355 148.522 23.7968 148.955 23.959C149.405 24.1032 149.892 24.1753 150.415 24.1753C151.207 24.1753 151.793 24.0401 152.172 23.7698C152.55 23.4814 152.739 23.13 152.739 22.7155C152.739 22.301 152.559 21.9857 152.199 21.7694C151.838 21.5351 151.262 21.3459 150.469 21.2017L149.712 21.0666C148.775 20.8864 147.919 20.6431 147.144 20.3367C146.369 20.0123 145.747 19.5708 145.278 19.0121C144.81 18.4535 144.576 17.7326 144.576 16.8496C144.576 15.516 145.062 14.4978 146.035 13.795C147.009 13.0741 148.288 12.7137 149.874 12.7137C151.37 12.7137 152.613 13.0471 153.604 13.7139C154.595 14.3807 155.244 15.2547 155.551 16.336L152.388 17.3091C152.244 16.6243 151.946 16.1377 151.496 15.8494C151.063 15.5611 150.523 15.4169 149.874 15.4169C149.225 15.4169 148.73 15.534 148.387 15.7683C148.045 15.9846 147.874 16.2909 147.874 16.6874C147.874 17.1199 148.054 17.4443 148.414 17.6605C148.775 17.8588 149.261 18.012 149.874 18.1201L150.631 18.2553C151.64 18.4355 152.55 18.6788 153.361 18.9851C154.19 19.2735 154.839 19.697 155.307 20.2556C155.794 20.7963 156.037 21.5351 156.037 22.4722C156.037 23.8779 155.524 24.9682 154.496 25.7431C153.487 26.5 152.127 26.8784 150.415 26.8784ZM164.163 26.5L169.137 7.57763H175.354L180.328 26.5H176.652L175.625 22.3371H168.867L167.839 26.5H164.163ZM169.705 19.0392H174.787L172.489 9.82128H172.002L169.705 19.0392ZM182.593 26.5V7.57763H186.161V26.5H182.593Z" fill="white"/>
</svg>
